<?xml version="1.0" encoding="UTF-8"?>
<svg id="Layer_1" data-name="Layer 1" xmlns="http://www.w3.org/2000/svg" fill="#ffffff" viewBox="0 0 1080 331.4">
  <defs>
    <style>
      .cls-1 {
        stroke-width: 0px;
      }
    </style>
  </defs>
  <g>
    <path class="cls-1" d="m597.61,305.86V112l-56.41,4.87v-10.02l64.14.86,69.87-.86v10.02l-62.14-4.87v193.86h-15.46Z"/>
    <path class="cls-1" d="m785.74,104.27c53.26,0,97.07,42.67,97.07,102.23s-44.1,101.37-96.79,101.37c-61.57,0-100.22-43.81-100.22-101.66s46.1-101.94,99.94-101.94Zm79.89,100.8c0-58.99-30.35-96.5-80.18-96.5s-82.76,36.37-82.76,96.79c0,64.14,28.35,97.93,82.76,97.93s80.18-38.94,80.18-98.22Z"/>
    <path class="cls-1" d="m1018.25,168.98c0-27.78-7.16-59.85-42.09-59.85-20.9,0-35.79,14.6-35.79,36.08,0,50.4,90.49,42.38,99.94,96.79.57,3.15.86,6.3.86,9.74,0,12.89-6.87,56.13-64.72,56.13-38.09,0-60.71-24.91-60.71-57.56,0-4.87.57-10.02,1.72-15.46h4.87c-1.15,4.87-1.43,9.74-1.43,14.32,0,30.93,20.62,53.26,51.54,53.26s52.12-15.46,52.12-46.96c0-24.91-17.75-37.23-38.37-47.25-28.35-14.03-62.14-23.77-62.14-56.7,0-21.76,14.32-47.25,54.69-47.25s56.41,27.2,56.41,64.72h-16.9Z"/>
  </g>
  <g>
    <path class="cls-1" d="m141.35,93.12c0-27.78-7.16-59.85-42.09-59.85-20.9,0-35.79,14.6-35.79,36.08,0,50.4,90.49,42.38,99.94,96.79.57,3.15.86,6.3.86,9.74,0,12.89-6.87,56.13-64.72,56.13-38.08,0-60.71-24.91-60.71-57.56,0-4.87.57-10.02,1.72-15.46h4.87c-1.14,4.87-1.43,9.74-1.43,14.32,0,30.93,20.62,53.26,51.54,53.26s52.12-15.46,52.12-46.96c0-24.91-17.75-37.23-38.37-47.25-28.35-14.03-62.14-23.77-62.14-56.7,0-21.76,14.32-47.25,54.69-47.25s56.41,27.2,56.41,64.72h-16.9Z"/>
    <path class="cls-1" d="m317.74,219.11l-4.58,10.88h-101.37V30.98h94.78v10.31l-79.61-5.44v80.18h75.88v4.87h-75.88v104.52l90.77-6.3Z"/>
    <path class="cls-1" d="m354.1,229.99l8.02-206.46h1.43l139.45,190.43-1.43-183.27h11.46l-6.59,210.47h-1.43L364.98,50.45l.57,179.54h-11.45Z"/>
  </g>
</svg>